<svg xmlns="http://www.w3.org/2000/svg" width="118.75" height="88.847" viewBox="0 0 118.75 88.847">
  <defs>
    <style>
      .ecdec48b-2512-4da7-afd7-bc21551661c3 {
        fill: #000;
      }
    </style>
  </defs>
  <g id="b350992b-db5f-4b1f-8cf9-9ee5ff25d439" data-name="Capa 2">
    <g id="ba18e896-9787-4626-ac37-d55b3d30bae1" data-name="svg2403">
      <path class="ecdec48b-2512-4da7-afd7-bc21551661c3" d="M118.748,26.893l0-.054C118.631,11.781,92.6,0,59.375,0S.12,11.781.005,26.838l0,.055c0,.015,0,.03,0,.045a13.3,13.3,0,0,0,.7,4.217L7.2,69c0,.024.014.046.018.069s0,.039.009.059c.014.062.04.125.057.187,0,.015.008.03.014.045,2.3,8.218,22.843,19.492,51.74,19.492a95.74,95.74,0,0,0,13.333-.937,1.972,1.972,0,0,0,.451-.067,90.76,90.76,0,0,0,13.948-3.15c.056,0,.109.017.167.017a1.981,1.981,0,0,0,1.287-.481c13.584-4.518,22.668-11.484,23.591-16.87,0-.017.011-.033.014-.051l6.222-36.149a13.275,13.275,0,0,0,.7-4.221C118.75,26.923,118.748,26.908,118.748,26.893ZM44.977,83.9A89.1,89.1,0,0,1,33.531,81.58V69.524a112.5,112.5,0,0,0,11.446,1.933Zm25.337.27a94.373,94.373,0,0,1-11.275.676c-3.516,0-6.873-.17-10.062-.476v-12.5a122.362,122.362,0,0,0,21.337,0Zm14.624-3.016a85.207,85.207,0,0,1-10.624,2.451V71.437A101.981,101.981,0,0,0,84.938,69.53ZM107.889,66.63v.014l0,.015c-.515,3.276-7.464,9.014-18.946,13.17V64.37l-2.512.665c-14.887,3.943-29.249,3.647-38.672,2.7a100.717,100.717,0,0,1-15.677-2.692l-2.546-.722V80.36c-11.006-3.687-17.579-8.824-18.406-12.142l-5.019-29.2c9.6,8.879,29.609,14.858,53.269,14.858S103.036,47.9,112.641,39.02ZM37.229,43.838,29.21,31.083a81.665,81.665,0,0,1,60.736.017L80.88,44.7C61.73,34.052,42.913,41.194,37.229,43.838ZM79.1,48.3a122.7,122.7,0,0,1-19.728,1.571A121.864,121.864,0,0,1,37.835,48C40.661,46.566,59.974,37.587,79.1,48.3Zm35.062-18.138c-2.67,7.47-14.416,13.9-30.286,17.247L93.7,32.678c2.337,1.042,4.7,2.2,7.086,3.513a2,2,0,1,0,1.924-3.507Q99.3,30.812,95.955,29.3l7.459-11.189a2,2,0,0,0-3.328-2.218L92.214,27.7a85.1,85.1,0,0,0-65.2-.1L19.687,15.936A2,2,0,0,0,16.3,18.064l7.024,11.173a53.768,53.768,0,0,0-6.454,3.545,2,2,0,0,0,2.244,3.312,52.077,52.077,0,0,1,6.377-3.411l9.241,14.7c-15.8-3.355-27.49-9.772-30.149-17.222l-.575-3.346C4.175,14.435,29.458,4,59.375,4s55.2,10.435,55.367,22.814Z"/>
    </g>
  </g>
</svg>
