<?xml version="1.0" standalone="no"?>
<!DOCTYPE svg PUBLIC "-//W3C//DTD SVG 20010904//EN"
 "http://www.w3.org/TR/2001/REC-SVG-20010904/DTD/svg10.dtd">
<svg version="1.0" xmlns="http://www.w3.org/2000/svg"
 width="512.000000pt" height="512.000000pt" viewBox="0 0 512.000000 512.000000"
 preserveAspectRatio="xMidYMid meet">

<g transform="translate(0.000000,512.000000) scale(0.100000,-0.100000)"
fill="#000000" stroke="none">
<path d="M4015 5106 c-367 -71 -647 -331 -747 -691 -26 -92 -35 -281 -18 -382
35 -220 161 -441 328 -576 75 -60 109 -82 199 -126 59 -30 70 -41 205 -221
153 -203 179 -226 226 -199 14 8 89 98 166 200 141 186 141 186 216 224 208
103 374 281 460 493 49 120 65 212 64 362 0 153 -21 251 -79 377 -119 257
-354 454 -625 524 -107 27 -295 34 -395 15z m308 -150 c196 -38 381 -155 493
-312 189 -265 203 -593 37 -877 -74 -125 -218 -250 -365 -316 -64 -28 -70 -34
-184 -185 -65 -86 -121 -156 -126 -156 -4 0 -61 71 -127 158 -114 152 -122
160 -176 182 -160 65 -320 214 -398 372 -61 121 -78 188 -84 328 -7 168 24
294 108 438 47 80 189 220 274 270 165 98 364 133 548 98z"/>
<path d="M4051 4644 c-81 -22 -149 -62 -217 -129 -91 -90 -144 -209 -144 -325
0 -67 18 -90 72 -90 49 0 68 26 78 103 10 86 39 147 97 205 74 74 129 96 238
97 77 0 98 -4 146 -26 72 -34 134 -96 168 -168 22 -47 26 -70 26 -141 0 -71
-4 -94 -26 -141 -33 -69 -91 -129 -161 -166 -47 -25 -64 -28 -148 -28 -110 0
-155 16 -233 83 -56 49 -92 54 -125 19 -37 -40 -29 -79 26 -129 125 -112 296
-154 457 -113 211 55 365 256 365 475 0 218 -155 420 -365 475 -73 19 -182 18
-254 -1z"/>
<path d="M1552 4224 c-164 -36 -332 -133 -453 -262 -116 -124 -193 -271 -225
-431 -22 -113 -15 -304 16 -411 88 -305 330 -539 642 -622 82 -22 96 -22 1033
-28 923 -6 952 -7 1010 -26 249 -85 420 -259 497 -504 19 -64 23 -95 22 -210
0 -124 -2 -142 -31 -223 -40 -115 -83 -185 -167 -274 -112 -119 -257 -197
-416 -222 -36 -6 -129 -11 -208 -11 -138 0 -144 -1 -167 -25 -32 -31 -32 -69
1 -102 l25 -25 187 5 c148 3 204 9 267 26 458 122 741 576 646 1036 -69 334
-316 590 -662 687 -32 8 -297 13 -994 18 -1069 7 -989 1 -1165 87 -80 39 -109
60 -185 137 -72 72 -99 108 -133 176 -64 129 -85 228 -80 369 9 202 71 344
213 486 90 90 159 134 278 179 l82 31 678 5 679 5 24 28 c29 34 30 56 3 91
l-20 26 -667 -1 c-525 -1 -680 -4 -730 -15z"/>
<path d="M935 1990 c-10 -11 -29 -70 -44 -137 l-26 -118 -76 -5 c-92 -7 -145
-36 -182 -102 -14 -24 -60 -143 -102 -265 l-78 -222 -156 -62 c-86 -34 -168
-70 -183 -81 -16 -11 -40 -40 -55 -66 l-28 -47 -3 -269 c-2 -149 -1 -280 3
-293 10 -42 51 -53 202 -53 l138 0 19 -52 c13 -37 36 -70 80 -114 54 -54 72
-65 135 -85 130 -39 245 -12 342 78 49 46 99 125 99 158 0 13 49 15 413 15
l413 0 23 -54 c32 -79 90 -139 169 -178 59 -30 76 -33 152 -33 76 0 93 3 152
33 79 39 137 99 169 178 l23 54 132 0 c143 0 175 8 193 47 15 32 15 514 0 567
-14 51 -80 121 -132 140 -23 9 -186 41 -362 72 -176 30 -321 56 -321 57 -1 1
-34 97 -74 212 -40 116 -81 226 -91 245 -40 80 -111 120 -213 120 l-65 0 -10
53 c-6 28 -15 81 -22 117 -21 115 -6 110 -334 110 -268 0 -283 -1 -300 -20z
m489 -139 c3 -4 8 -34 12 -65 l7 -56 -212 0 c-116 0 -211 3 -211 8 1 10 20 94
25 110 5 14 370 18 379 3z m-539 -288 c-3 -10 -42 -121 -86 -246 -54 -157 -77
-236 -73 -253 14 -55 -3 -54 652 -54 l603 0 347 -60 c320 -56 349 -63 369 -86
22 -24 23 -31 23 -235 l0 -209 -93 0 -93 0 -13 38 c-37 107 -136 198 -246 227
-74 19 -96 19 -170 0 -111 -29 -206 -114 -243 -218 l-17 -47 -409 2 -408 3
-20 52 c-40 107 -174 212 -277 216 -36 1 -47 -3 -67 -26 -13 -16 -24 -37 -24
-47 0 -30 41 -66 90 -80 93 -25 150 -97 150 -189 0 -87 -37 -146 -115 -182
-160 -74 -329 93 -260 258 20 47 19 65 -6 97 -43 55 -113 26 -142 -59 l-14
-40 -96 -3 -97 -3 0 214 c0 209 1 214 23 234 12 12 97 51 189 88 91 36 173 74
181 83 8 9 53 130 101 267 48 138 94 256 103 263 10 6 45 12 81 12 57 0 63 -2
57 -17z m848 -1 c12 -13 147 -380 147 -399 0 -2 -218 -3 -485 -3 -287 0 -485
4 -485 9 0 7 98 295 135 399 3 9 80 12 338 12 306 0 335 -1 350 -18z m510
-1023 c52 -14 112 -71 133 -125 31 -81 0 -176 -75 -229 -37 -26 -51 -30 -111
-30 -60 0 -74 4 -111 30 -133 94 -106 296 47 350 48 17 68 18 117 4z"/>
<path d="M1043 858 c-48 -23 -51 -103 -4 -127 11 -6 64 -11 119 -11 90 0 100
2 120 23 29 31 28 72 -3 102 -22 23 -31 25 -117 24 -51 0 -103 -5 -115 -11z"/>
</g>
</svg>
