<svg version="1.1" id="ico" xmlns="http://www.w3.org/2000/svg" xmlns:xlink="http://www.w3.org/1999/xlink" x="0px" y="0px"
	 width="50px" height="50px" viewBox="0 0 50 50" style="enable-background:new 0 0 50 50;" xml:space="preserve">
<path d="M24.452,37.173h-2.598c-0.359,0-0.65,0.291-0.65,0.65v2.979c0,0.359,0.291,0.65,0.65,0.65h2.598
	c0.359,0,0.65-0.291,0.65-0.65v-2.979C25.102,37.464,24.811,37.173,24.452,37.173z M23.802,40.151h-1.298v-1.678h1.298V40.151z
	 M31.799,37.173h-2.598c-0.359,0-0.65,0.291-0.65,0.65v2.979c0,0.359,0.291,0.65,0.65,0.65h2.598c0.359,0,0.65-0.291,0.65-0.65
	v-2.979C32.449,37.464,32.158,37.173,31.799,37.173z M31.149,40.151h-1.298v-1.678h1.298V40.151z M14.799,37.173h-2.598
	c-0.359,0-0.65,0.291-0.65,0.65v2.979c0,0.359,0.291,0.65,0.65,0.65h2.598c0.359,0,0.65-0.291,0.65-0.65v-2.979
	C15.449,37.464,15.158,37.173,14.799,37.173z M14.149,40.151h-1.298v-1.678h1.298V40.151z M14.799,31.173h-2.598
	c-0.359,0-0.65,0.291-0.65,0.65v2.979c0,0.359,0.291,0.65,0.65,0.65h2.598c0.359,0,0.65-0.291,0.65-0.65v-2.979
	C15.449,31.464,15.158,31.173,14.799,31.173z M14.149,34.151h-1.298v-1.678h1.298V34.151z M39.146,37.173h-2.598
	c-0.359,0-0.65,0.291-0.65,0.65v2.979c0,0.359,0.291,0.65,0.65,0.65h2.598c0.359,0,0.65-0.291,0.65-0.65v-2.979
	C39.796,37.464,39.505,37.173,39.146,37.173z M38.496,40.151h-1.298v-1.678h1.298V40.151z M24.452,31.173h-2.598
	c-0.359,0-0.65,0.291-0.65,0.65v2.979c0,0.359,0.291,0.65,0.65,0.65h2.598c0.359,0,0.65-0.291,0.65-0.65v-2.979
	C25.102,31.464,24.811,31.173,24.452,31.173z M23.802,34.151h-1.298v-1.678h1.298V34.151z M31.799,31.173h-2.598
	c-0.359,0-0.65,0.291-0.65,0.65v2.979c0,0.359,0.291,0.65,0.65,0.65h2.598c0.359,0,0.65-0.291,0.65-0.65v-2.979
	C32.449,31.464,32.158,31.173,31.799,31.173z M31.149,34.151h-1.298v-1.678h1.298V34.151z M39.146,31.173h-2.598
	c-0.359,0-0.65,0.291-0.65,0.65v2.979c0,0.359,0.291,0.65,0.65,0.65h2.598c0.359,0,0.65-0.291,0.65-0.65v-2.979
	C39.796,31.464,39.505,31.173,39.146,31.173z M38.496,34.151h-1.298v-1.678h1.298V34.151z M24.452,25.173h-2.598
	c-0.359,0-0.65,0.291-0.65,0.65v2.979c0,0.359,0.291,0.65,0.65,0.65h2.598c0.359,0,0.65-0.291,0.65-0.65v-2.979
	C25.102,25.464,24.811,25.173,24.452,25.173z M23.802,28.151h-1.298v-1.678h1.298V28.151z M31.799,25.173h-2.598
	c-0.359,0-0.65,0.291-0.65,0.65v2.979c0,0.359,0.291,0.65,0.65,0.65h2.598c0.359,0,0.65-0.291,0.65-0.65v-2.979
	C32.449,25.464,32.158,25.173,31.799,25.173z M31.149,28.151h-1.298v-1.678h1.298V28.151z M39.146,25.173h-2.598
	c-0.359,0-0.65,0.291-0.65,0.65v2.979c0,0.359,0.291,0.65,0.65,0.65h2.598c0.359,0,0.65-0.291,0.65-0.65v-2.979
	C39.796,25.464,39.505,25.173,39.146,25.173z M38.496,28.151h-1.298v-1.678h1.298V28.151z M24.452,19.173h-2.598
	c-0.359,0-0.65,0.291-0.65,0.65v2.979c0,0.359,0.291,0.65,0.65,0.65h2.598c0.359,0,0.65-0.291,0.65-0.65v-2.979
	C25.102,19.464,24.811,19.173,24.452,19.173z M23.802,22.151h-1.298v-1.678h1.298V22.151z M39.146,19.173h-2.598
	c-0.359,0-0.65,0.291-0.65,0.65v2.979c0,0.359,0.291,0.65,0.65,0.65h2.598c0.359,0,0.65-0.291,0.65-0.65v-2.979
	C39.796,19.464,39.505,19.173,39.146,19.173z M38.496,22.151h-1.298v-1.678h1.298V22.151z M45.667,42.979h-2.81V13.583
	c0-0.359-0.291-0.65-0.65-0.65h-4.412v-2.225c0-0.359-0.291-0.65-0.65-0.65h-3.121V6.937c0-0.359-0.291-0.65-0.65-0.65h-5.75
	c-0.359,0-0.65,0.291-0.65,0.65v3.121h-3.121c-0.359,0-0.65,0.291-0.65,0.65v2.225h-4.412c-0.359,0-0.65,0.291-0.65,0.65v14.568
	H8.085c-0.359,0-0.65,0.291-0.65,0.65v14.178H4.333c-0.359,0-0.65,0.291-0.65,0.65s0.291,0.65,0.65,0.65h3.752h10.708h23.415h3.459
	c0.359,0,0.65-0.291,0.65-0.65S46.026,42.979,45.667,42.979z M24.504,11.358h3.121c0.359,0,0.65-0.291,0.65-0.65V7.587h4.45v3.121
	c0,0.359,0.291,0.65,0.65,0.65h3.121v2.225v2.225h-3.121c-0.359,0-0.65,0.291-0.65,0.65v3.12h-4.45v-3.12
	c0-0.359-0.291-0.65-0.65-0.65h-3.121v-2.225V11.358z M8.735,29.452h9.408v13.527H8.735V29.452z M19.442,42.979V28.802V14.233h3.762
	v2.225c0,0.359,0.291,0.65,0.65,0.65h3.121v3.12c0,0.359,0.291,0.65,0.65,0.65h5.75c0.359,0,0.65-0.291,0.65-0.65v-3.12h3.121
	c0.359,0,0.65-0.291,0.65-0.65v-2.225h3.762v28.746H19.442z"
fill="#000"/> <!-- Cambia este valor de fill a tu color deseado -->
</svg>
