<svg xmlns="http://www.w3.org/2000/svg" width="27" height="27.001" viewBox="0 0 27 27.001">
  <defs>
    <style>
      .bf6ffd11-9bc2-4ac8-b286-ddfc250272f0 {
        fill: none;
      }

      .a6c3c0c7-2a35-42ef-9fc7-a1674c438fb7 {
        fill: #fff;
      }

      .e5c73ba3-de4d-42a8-9a7b-d810fef6edcf {
        fill: #474747;
      }
    </style>
  </defs>
  <g id="a8f57abf-8331-47ae-8fca-7f2ca4806dfc" data-name="Capa 2">
    <g id="a5d05b58-d359-4dd4-92b2-df4b8320b4dd" data-name="svg4063">
      <g>
        <path id="a94bc40f-5986-462e-95eb-61081d6f08ae" data-name="path5016" class="bf6ffd11-9bc2-4ac8-b286-ddfc250272f0" d="M18.642,2H0V27H25V8.449"/>
        <path id="b4404f13-d27f-458a-a0c5-7062f4d9d8b1" data-name="path5018" class="bf6ffd11-9bc2-4ac8-b286-ddfc250272f0" d="M18.453,6.426,0,24.879V27H2.121L20.4,8.721,19.318,7.645A4.5,4.5,0,0,1,18.453,6.426Z"/>
        <g>
          <polygon class="a6c3c0c7-2a35-42ef-9fc7-a1674c438fb7" points="0 27.001 0.001 27 0 27 0 27.001"/>
          <path class="a6c3c0c7-2a35-42ef-9fc7-a1674c438fb7" d="M17.42,2.38c.055-.133.127-.253.192-.379H0V24.879L17.714,7.165A5.437,5.437,0,0,1,17.42,2.38ZM9.5,7.5a4,4,0,1,1-2-3.463L7,4.9a3,3,0,1,0-.723,5.5A2.919,2.919,0,0,0,8.33,8H5.5V7h4Z"/>
          <polygon class="a6c3c0c7-2a35-42ef-9fc7-a1674c438fb7" points="0 2.001 0 2.001 0 2.001 0 2.001"/>
          <polygon class="a6c3c0c7-2a35-42ef-9fc7-a1674c438fb7" points="2.121 27 22.879 27 12.5 16.621 2.121 27"/>
          <polygon class="a6c3c0c7-2a35-42ef-9fc7-a1674c438fb7" points="22.499 12.224 19.692 9.429 14.621 14.5 25 24.879 25 9.733 22.499 12.224"/>
        </g>
        <path id="a1d9f7de-a6e7-4556-b40a-53fd0839e478" data-name="path5022" class="bf6ffd11-9bc2-4ac8-b286-ddfc250272f0" d="M22.879,27,12.5,16.621,14.621,14.5,25,24.879"/>
        <path id="b9ba6c07-6b5c-45d1-97ef-fc449ab10d24" data-name="path5024" class="e5c73ba3-de4d-42a8-9a7b-d810fef6edcf" d="M22.5,0a4.476,4.476,0,0,0-3.181,7.645L22.5,10.813l3.182-3.168A4.475,4.475,0,0,0,22.5,0Zm.022,2.984a1.505,1.505,0,0,1,1.039.438,1.488,1.488,0,0,1,0,2.112h0a1.507,1.507,0,0,1-2.123,0,1.487,1.487,0,0,1,0-2.112h0A1.5,1.5,0,0,1,22.521,2.984Z"/>
      </g>
    </g>
  </g>
</svg>
